<?xml version="1.0" encoding="utf-8"?>
<!-- Generator: Adobe Illustrator 21.0.0, SVG Export Plug-In . SVG Version: 6.00 Build 0)  -->
<svg version="1.1" id="Layer_1" xmlns="http://www.w3.org/2000/svg" xmlns:xlink="http://www.w3.org/1999/xlink" x="0px" y="0px"
	 viewBox="0 0 26 26" style="enable-background:new 0 0 26 26;" xml:space="preserve">
<style type="text/css">
	.st0{display:none;fill:#E1BCAC;}
	.st1{display:none;}
	.st2{display:inline;}
	.st3{fill:#FFFFFF;}
	.st4{font-family:'Roboto-Regular';}
	.st5{font-size:10.7978px;}
	.st6{display:inline;fill:#FFFFFF;}
</style>
<rect x="-1" class="st0" width="28" height="26"/>
<g class="st1">
	<g class="st2">
		<text transform="matrix(1 0 0 1 6.7446 16.8413)" class="st3 st4 st5">60</text>
		<g>
			<path class="st3" d="M13,25.5C6.1,25.5,0.5,19.9,0.5,13S6.1,0.5,13,0.5S25.5,6.1,25.5,13S19.9,25.5,13,25.5z M13,1.5
				C6.7,1.5,1.5,6.7,1.5,13S6.7,24.5,13,24.5S24.5,19.3,24.5,13S19.3,1.5,13,1.5z"/>
			<rect x="12.6" y="2" class="st3" width="0.8" height="2.4"/>
			<rect x="2" y="12.6" class="st3" width="2.4" height="0.8"/>
			<rect x="21.6" y="12.6" class="st3" width="2.4" height="0.8"/>
			<rect x="12.6" y="21.6" class="st3" width="0.8" height="2.4"/>
		</g>
	</g>
</g>
<g>
	<g>
		<path class="st3" d="M11.5,14.3h1.1v0.8h-1.1v1.8h-1v-1.8H7v-0.6l3.4-5.3h1.1V14.3z M8.1,14.3h2.3v-3.6l0,0l-0.1,0.3L8.1,14.3z"/>
		<path class="st3" d="M14.2,13.4l0.4-4.2h3.8v0.9h-3l-0.3,2.2c0.2-0.1,0.3-0.2,0.5-0.3c0.2-0.1,0.4-0.1,0.7-0.1
			c0.7,0,1.3,0.2,1.7,0.7s0.6,1.1,0.6,1.9c0,0.8-0.2,1.4-0.6,1.9s-1,0.7-1.8,0.7c-0.7,0-1.2-0.2-1.6-0.5c-0.4-0.4-0.6-0.9-0.6-1.6
			l0,0H15c0,0.4,0.1,0.7,0.4,1c0.2,0.2,0.6,0.3,0.9,0.3c0.4,0,0.8-0.2,1-0.5c0.2-0.3,0.4-0.7,0.4-1.3c0-0.5-0.1-0.9-0.4-1.2
			c-0.2-0.3-0.6-0.5-1-0.5c-0.4,0-0.7,0.1-0.9,0.2s-0.3,0.3-0.4,0.6L14.2,13.4z"/>
	</g>
	<g>
		<g>
			<path class="st3" d="M13,25.5C6.1,25.5,0.5,19.9,0.5,13S6.1,0.5,13,0.5S25.5,6.1,25.5,13S19.9,25.5,13,25.5z M13,1.5
				C6.7,1.5,1.5,6.7,1.5,13S6.7,24.5,13,24.5S24.5,19.3,24.5,13S19.3,1.5,13,1.5z"/>
		</g>
		<g>
			<rect x="12.6" y="2" class="st3" width="0.8" height="2.4"/>
		</g>
		<g>
			<rect x="2" y="12.6" class="st3" width="2.4" height="0.8"/>
		</g>
		<g>
			<rect x="21.6" y="12.6" class="st3" width="2.4" height="0.8"/>
		</g>
		<g>
			<rect x="12.6" y="21.6" class="st3" width="0.8" height="2.4"/>
		</g>
	</g>
</g>
<g class="st1">
	<text transform="matrix(1 0 0 1 6.7446 16.8413)" class="st6 st4 st5">30</text>
	<g class="st2">
		<path class="st3" d="M13,25.5C6.1,25.5,0.5,19.9,0.5,13S6.1,0.5,13,0.5S25.5,6.1,25.5,13S19.9,25.5,13,25.5z M13,1.5
			C6.7,1.5,1.5,6.7,1.5,13S6.7,24.5,13,24.5S24.5,19.3,24.5,13S19.3,1.5,13,1.5z"/>
		<rect x="12.6" y="2" class="st3" width="0.8" height="2.4"/>
		<rect x="2" y="12.6" class="st3" width="2.4" height="0.8"/>
		<rect x="21.6" y="12.6" class="st3" width="2.4" height="0.8"/>
		<rect x="12.6" y="21.6" class="st3" width="0.8" height="2.4"/>
	</g>
</g>
<g class="st1">
	<text transform="matrix(1 0 0 1 6.7446 16.8413)" class="st6 st4 st5">15</text>
	<g class="st2">
		<path class="st3" d="M13,25.5C6.1,25.5,0.5,19.9,0.5,13S6.1,0.5,13,0.5S25.5,6.1,25.5,13S19.9,25.5,13,25.5z M13,1.5
			C6.7,1.5,1.5,6.7,1.5,13S6.7,24.5,13,24.5S24.5,19.3,24.5,13S19.3,1.5,13,1.5z"/>
		<rect x="12.6" y="2" class="st3" width="0.8" height="2.4"/>
		<rect x="2" y="12.6" class="st3" width="2.4" height="0.8"/>
		<rect x="21.6" y="12.6" class="st3" width="2.4" height="0.8"/>
		<rect x="12.6" y="21.6" class="st3" width="0.8" height="2.4"/>
	</g>
</g>
</svg>
