<?xml version="1.0" encoding="utf-8"?>
<!-- Generator: Adobe Illustrator 21.0.0, SVG Export Plug-In . SVG Version: 6.00 Build 0)  -->
<svg version="1.1" id="Layer_1" xmlns="http://www.w3.org/2000/svg" xmlns:xlink="http://www.w3.org/1999/xlink" x="0px" y="0px"
	 viewBox="0 0 38 38" style="enable-background:new 0 0 38 38;" xml:space="preserve">
<style type="text/css">
	.st0{fill:#4778A8;}
</style>
<g>
	<path class="st0" d="M15,13.7c0.4,0,0.7,0,1.1,0.1c0.4,0.1,0.6,0.2,0.9,0.3l-0.3,1.1c-0.2-0.1-0.5-0.2-0.7-0.3
		c-0.3-0.1-0.6-0.1-0.9-0.1c-0.8,0-1.4,0.3-1.8,0.9s-0.7,1.4-0.7,2.4v0.2c0.3-0.3,0.7-0.5,1.1-0.6c0.4-0.2,0.8-0.2,1.3-0.2
		c0.9,0,1.7,0.3,2.2,1C17.8,19.2,18,20,18,21c0,1.1-0.3,2-0.9,2.7s-1.4,1-2.4,1s-1.9-0.4-2.6-1.1c-0.7-0.7-1-1.8-1-3.2v-2
		c0-1.3,0.4-2.4,1.1-3.3S13.9,13.7,15,13.7z M14.5,18.5c-0.5,0-0.9,0.1-1.2,0.3s-0.6,0.5-0.8,0.8v0.9c0,1,0.2,1.7,0.6,2.2
		c0.4,0.5,0.9,0.8,1.5,0.8s1-0.2,1.4-0.7c0.3-0.5,0.5-1.1,0.5-1.8c0-0.7-0.2-1.3-0.5-1.7C15.6,18.7,15.1,18.5,14.5,18.5z"/>
	<path class="st0" d="M26.5,20.4c0,1.3-0.3,2.4-0.9,3.1s-1.4,1.1-2.4,1.1s-1.9-0.4-2.5-1.1s-0.9-1.7-0.9-3.1v-2.5
		c0-1.3,0.3-2.4,0.9-3.1c0.6-0.7,1.4-1.1,2.4-1.1s1.9,0.4,2.5,1.1c0.6,0.7,0.9,1.8,0.9,3.1V20.4z M25.1,17.6c0-0.9-0.2-1.6-0.5-2.1
		s-0.8-0.7-1.4-0.7s-1.1,0.2-1.4,0.7s-0.5,1.1-0.5,2.1v3.1c0,0.9,0.2,1.6,0.5,2.1s0.8,0.7,1.4,0.7s1.1-0.2,1.4-0.7s0.5-1.2,0.5-2.1
		V17.6z"/>
</g>
<g>
	<g>
		<path class="st0" d="M30.8,18.8c0.1,6.5-5.1,11.9-11.6,12s-11.9-5.1-12-11.6l-7.1,0.1c0.2,10.5,8.8,18.8,19.3,18.6
			S38.2,29.1,38,18.6C37.7,8.2,29.1-0.1,18.7,0.1l0.1,7.1C25.3,7.1,30.7,12.3,30.8,18.8z"/>
	</g>
</g>
<g>
	<g>
		<path class="st0" d="M19,30.8c-6.5,0-11.8-5.3-11.8-11.8S12.5,7.2,19,7.2V0.1C8.5,0.1,0.1,8.5,0.1,19S8.5,37.9,19,37.9
			S37.9,29.5,37.9,19h-7.1C30.8,25.5,25.5,30.8,19,30.8z"/>
	</g>
</g>
</svg>
