<?xml version="1.0" encoding="utf-8"?>
<!-- Generator: Adobe Illustrator 21.0.0, SVG Export Plug-In . SVG Version: 6.00 Build 0)  -->
<svg version="1.1" id="Layer_1" xmlns="http://www.w3.org/2000/svg" xmlns:xlink="http://www.w3.org/1999/xlink" x="0px" y="0px"
	 viewBox="0 0 38 38" style="enable-background:new 0 0 38 38;" xml:space="preserve">
<style type="text/css">
	.st0{fill:#FFFFFF;}
</style>
<g>
	<path class="st0" d="M15,24.4h-1.4v-9.1h-2.2v-1l3.6-0.4V24.4z"/>
	<path class="st0" d="M20.3,19.6l0.6-5.8h5.3v1.3h-4.1l-0.3,3c0.2-0.2,0.5-0.3,0.7-0.4s0.6-0.2,0.9-0.2c1,0,1.7,0.3,2.3,0.9
		c0.6,0.6,0.8,1.5,0.8,2.6s-0.3,1.9-0.8,2.5c-0.6,0.6-1.4,1-2.5,1c-0.9,0-1.6-0.2-2.2-0.7s-0.9-1.2-0.9-2.1l0,0h1.3
		c0,0.6,0.2,1,0.5,1.3s0.8,0.5,1.3,0.5c0.6,0,1.1-0.2,1.4-0.6s0.5-1,0.5-1.7s-0.2-1.2-0.5-1.7c-0.3-0.4-0.8-0.6-1.4-0.6
		s-1,0.1-1.2,0.3c-0.3,0.2-0.4,0.4-0.5,0.8L20.3,19.6z"/>
</g>
<g>
	<g>
		<path class="st0" d="M7.2,19c0-6.5,5.3-11.8,11.8-11.8V0.1C8.5,0.1,0.1,8.5,0.1,19"/>
	</g>
</g>
</svg>
