<?xml version="1.0" encoding="utf-8"?>
<!-- Generator: Adobe Illustrator 21.0.0, SVG Export Plug-In . SVG Version: 6.00 Build 0)  -->
<svg version="1.1" id="Layer_1" xmlns="http://www.w3.org/2000/svg" xmlns:xlink="http://www.w3.org/1999/xlink" x="0px" y="0px"
	 viewBox="0 0 38 38" style="enable-background:new 0 0 38 38;" xml:space="preserve">
<style type="text/css">
	.st0{fill:#4778A8;}
</style>
<g>
	<path class="st0" d="M12.9,18.5h1.2c0.6,0,1.1-0.2,1.3-0.5c0.3-0.3,0.4-0.8,0.4-1.3c0-0.6-0.1-1.1-0.4-1.4s-0.7-0.5-1.3-0.5
		s-1,0.2-1.3,0.5s-0.5,0.8-0.5,1.3h-1.4l0,0c0-0.8,0.3-1.5,0.9-2s1.4-0.8,2.4-0.8s1.8,0.3,2.3,0.8c0.6,0.5,0.9,1.3,0.9,2.2
		c0,0.4-0.1,0.9-0.4,1.3s-0.7,0.8-1.2,1c0.6,0.2,1.1,0.5,1.3,1s0.4,0.9,0.4,1.5c0,1-0.3,1.7-0.9,2.3c-0.6,0.5-1.4,0.8-2.4,0.8
		s-1.8-0.3-2.4-0.8c-0.6-0.5-0.9-1.2-0.9-2.1l0,0h1.4c0,0.6,0.2,1,0.5,1.3s0.8,0.5,1.4,0.5c0.6,0,1.1-0.2,1.4-0.5
		c0.3-0.3,0.5-0.8,0.5-1.4s-0.2-1.1-0.5-1.4s-0.8-0.5-1.4-0.5H13L12.9,18.5L12.9,18.5z"/>
	<path class="st0" d="M26.5,20.4c0,1.3-0.3,2.4-0.9,3.1s-1.4,1.1-2.4,1.1s-1.9-0.4-2.5-1.1s-0.9-1.7-0.9-3.1v-2.5
		c0-1.3,0.3-2.4,0.9-3.1c0.6-0.7,1.4-1.1,2.4-1.1s1.9,0.4,2.5,1.1c0.6,0.7,0.9,1.8,0.9,3.1V20.4z M25.1,17.6c0-0.9-0.2-1.6-0.5-2.1
		s-0.8-0.7-1.4-0.7s-1.1,0.2-1.4,0.7s-0.5,1.1-0.5,2.1v3.1c0,0.9,0.2,1.6,0.5,2.1s0.8,0.7,1.4,0.7s1.1-0.2,1.4-0.7s0.5-1.2,0.5-2.1
		V17.6z"/>
</g>
<g>
	<g>
		<path class="st0" d="M19,30.8c-6.5,0-11.8-5.3-11.8-11.8S12.5,7.2,19,7.2V0.1C8.5,0.1,0.1,8.5,0.1,19S8.5,37.9,19,37.9"/>
	</g>
</g>
</svg>
