<?xml version="1.0" encoding="utf-8"?>
<!-- Generator: Adobe Illustrator 21.0.0, SVG Export Plug-In . SVG Version: 6.00 Build 0)  -->
<svg version="1.1" id="Layer_1" xmlns="http://www.w3.org/2000/svg" xmlns:xlink="http://www.w3.org/1999/xlink" x="0px" y="0px"
	 viewBox="0 0 25 25" style="enable-background:new 0 0 25 25;" xml:space="preserve">
<style type="text/css">
	.st0{display:none;}
	.st1{display:inline;fill:#F8C157;}
	.st2{display:inline;}
	.st3{fill:#5FC1D1;}
	.st4{fill:#47919D;}
	.st5{fill:#F89731;}
	.st6{fill:#FAFBFC;}
	.st7{display:inline;fill-rule:evenodd;clip-rule:evenodd;fill:#F8C157;}
	.st8{fill:#2D707F;}
	.st9{fill:#236570;}
	.st10{fill:#FFFFFF;}
	.st11{fill:#EE9127;}
	.st12{fill:#98C1CC;}
	.st13{fill:#B5DCE7;}
	.st14{fill:#E2F3F8;}
	.st15{fill-rule:evenodd;clip-rule:evenodd;fill:#FFFFFF;}
	.st16{fill:#2DAD4A;}
	.st17{fill:#FCF1DB;}
	.st18{fill:#262429;}
	.st19{fill:#F47536;}
	.st20{fill:#68C5B0;}
	.st21{fill:#E1E2E1;}
	.st22{fill:#343E53;}
	.st23{display:inline;fill:#5E5E5E;}
	.st24{display:inline;fill:#FFFFFF;}
	.st25{display:inline;fill:none;stroke:#010101;stroke-width:0.2791;}
	.st26{display:inline;fill:#113855;}
	.st27{display:inline;fill:#D46237;}
	.st28{display:inline;fill:#FBAB20;}
</style>
<g class="st0">
	<circle class="st1" cx="12.5" cy="12.5" r="12.4"/>
	<g class="st2">
		<path class="st3" d="M20.4,13.6c0,0.4-0.3,0.7-0.7,0.7h-9.2c-0.4,0-0.7-0.3-0.7-0.7V7c0-0.4,0.3-0.7,0.7-0.7h9.2
			c0.4,0,0.7,0.3,0.7,0.7V13.6z"/>
		<path class="st3" d="M18,13c0,0,1.2,3.2,1.7,4.7c0,0-5.1-3.7-6.4-4.7H18z"/>
		<path class="st4" d="M19.7,17.7c-0.3-0.9-0.8-2.3-1.2-3.4h1.2c0.3,0,0.5-0.1,0.6-0.3L16,9.4c-1.2,0.3-2.6,2.9-3.1,4.9H15
			C17,15.8,19.7,17.7,19.7,17.7z"/>
		<ellipse class="st5" cx="10.7" cy="11.7" rx="6.1" ry="4.6"/>
		<path class="st5" d="M6.8,13.9c0,0-1.2,3.3-1.8,4.9c0,0,5.3-3.8,6.7-4.9H6.8z"/>
		<g>
			<g>
				<circle class="st6" cx="8.3" cy="11.7" r="0.6"/>
				<circle class="st6" cx="10.9" cy="11.7" r="0.8"/>
			</g>
			<circle class="st6" cx="13.5" cy="11.7" r="0.9"/>
		</g>
	</g>
</g>
<g class="st0">
	<circle id="XMLID_17_" class="st7" cx="12.5" cy="12.5" r="12.4"/>
	<g class="st2">
		<path class="st8" d="M18,5.7H7.3c-0.5,0-1,0.4-1,1v0.2v12.7v0.2c0,0.5,0.4,1,1,1H18c0.5,0,1-0.4,1-1v-0.2V6.9V6.7
			C19,6.2,18.6,5.7,18,5.7z"/>
		<path class="st9" d="M17.7,6.7h-0.2H8.5H8.3C8,6.7,7.8,7,7.8,7.2v12.2c0,0.3,0.2,0.5,0.5,0.5h0.2h9.1h0.2c0.3,0,0.5-0.2,0.5-0.5
			V7.2C18.2,7,18,6.7,17.7,6.7z"/>
		<g>
			<path class="st10" d="M17,6.7h-0.2H8.5H8.3C8,6.7,7.8,7,7.8,7.2v11.5c0,0.3,0.2,0.5,0.5,0.5h0.2h8.4H17c0.3,0,0.5-0.2,0.5-0.5
				V7.2C17.5,7,17.3,6.7,17,6.7z"/>
			<g>
				<rect x="11" y="9.2" class="st11" width="5.1" height="0.7"/>
			</g>
			<g>
				<rect x="11" y="11.5" class="st12" width="5.1" height="0.7"/>
			</g>
			<g>
				<g>
					<path class="st13" d="M16,7.1V6.5c0-0.7-0.5-1.2-1.2-1.2h-4.5c-0.7,0-1.2,0.5-1.2,1.2v0.6H16z"/>
				</g>
				<g>
					<path class="st13" d="M11.1,5.9V5.5c0-0.4,0.3-0.7,0.7-0.7h1.5c0.4,0,0.7,0.3,0.7,0.7v0.4h0.5V5.5c0-0.7-0.5-1.2-1.2-1.2h-1.5
						c-0.7,0-1.2,0.5-1.2,1.2v0.4H11.1z"/>
				</g>
			</g>
			<g>
				<rect x="11" y="13.8" class="st12" width="5.1" height="0.7"/>
			</g>
			<path class="st14" d="M16.9,19.3H17c0.3,0,0.5-0.2,0.5-0.5v-4h-0.4c-0.3,0-0.5,0.2-0.5,0.5V16l-1.2,1.1c-0.2,0.1-0.3,0.3-0.3,0.5
				v0.2v1.5H16.9z"/>
			<g>
				<g>
					<ellipse transform="matrix(0.2453 -0.9694 0.9694 0.2453 -2.0723 16.1933)" class="st11" cx="9.4" cy="9.4" rx="1" ry="1"/>
				</g>
				<path class="st15" d="M9.2,10c0,0-0.1,0-0.1-0.1L8.7,9.6c-0.1-0.1-0.1-0.2,0-0.3c0.1-0.1,0.2-0.1,0.3,0l0.2,0.2L9.7,9
					C9.8,9,9.9,9,10,9c0.1,0.1,0.1,0.2,0,0.3L9.4,10C9.3,10,9.3,10,9.2,10L9.2,10z"/>
			</g>
			<g>
				<g>
					
						<ellipse transform="matrix(0.2453 -0.9694 0.9694 0.2453 -4.4388 18.0356)" class="st12" cx="9.4" cy="11.9" rx="0.8" ry="0.8"/>
				</g>
			</g>
			<g>
				<g>
					
						<ellipse transform="matrix(0.2453 -0.9694 0.9694 0.2453 -6.7158 19.8084)" class="st12" cx="9.4" cy="14.2" rx="0.8" ry="0.8"/>
				</g>
			</g>
			<g>
				<g>
					
						<ellipse transform="matrix(0.2453 -0.9694 0.9694 0.2453 -8.9929 21.581)" class="st12" cx="9.4" cy="16.6" rx="0.8" ry="0.8"/>
				</g>
			</g>
			<g>
				<rect x="11" y="16.3" class="st12" width="5.1" height="0.7"/>
			</g>
		</g>
	</g>
</g>
<g>
	<circle class="st16" cx="12.5" cy="12.5" r="12.5"/>
	<path class="st17" d="M16.1,8.2c-0.2,2.2-1.8,3.9-3.5,3.9c-1.7,0-3.2-1.6-3.5-3.9C8.9,6,10.5,4,12.6,4C14.8,4,16.3,6,16.1,8.2z"/>
	<path class="st18" d="M16.6,12.4c-0.2-0.1-0.3-0.1-0.5-0.2l-3.5,3.1l-3.5-3.1c-0.2,0.1-0.3,0.1-0.5,0.2c-1.1,0.6-1.9,2.2-1.9,3.1
		c0,1,0,2,0,2.9c0,1,0.9,1.8,2.1,1.8c2.5,0,5.1,0,7.6,0c1.2,0,2.1-0.9,2.1-1.8c0-1,0-2,0-2.9C18.5,14.6,17.7,13,16.6,12.4z"/>
</g>
<g class="st0">
	<g class="st2">
		<circle class="st19" cx="12.5" cy="12.5" r="12.4"/>
		<circle class="st20" cx="12.5" cy="12.5" r="8.5"/>
		<circle class="st10" cx="12.5" cy="12.5" r="8.1"/>
	</g>
	<g class="st2">
		<rect x="15.6" y="8.8" class="st21" width="0.9" height="6.2"/>
		<path class="st21" d="M14.1,4.5c0-0.6,0.3-1.4,1.1-1.8l0,0c0.8-0.4,1.4-0.1,1.4,0.7c0,2.7,0,5.5,0,8.2c0,0.8,0,1.1-0.8,0.7l0,0
			c-0.8-0.4-1.4-1.1-1.4-1.7C14.1,8.6,14.1,6.5,14.1,4.5z"/>
		<path class="st22" d="M17.2,22.5c0,0.7-0.4,1.2-1,1.2H16c-0.5,0-1-0.5-1-1.2v-7.1c0-0.7,0.4-1.2,1-1.2h0.3c0.5,0,1,0.5,1,1.2V22.5
			z"/>
	</g>
	<g class="st2">
		<rect x="9.8" y="8.8" class="st21" width="0.9" height="6.2"/>
		<path class="st22" d="M11.4,22.5c0,0.7-0.4,1.2-1,1.2h-0.3c-0.5,0-1-0.5-1-1.2v-7.1c0-0.7,0.4-1.2,1-1.2h0.3c0.5,0,1,0.5,1,1.2
			V22.5z"/>
		<path class="st21" d="M12.3,4.2c0-0.4,0-0.8-0.2-0.8c-0.2,0-0.4,0.3-0.4,0.8l-0.2,3c0,0.3-0.2,0.5-0.4,0.5c-0.2,0-0.4-0.2-0.4-0.5
			l-0.1-3c0-0.4-0.1-0.8-0.3-0.8c-0.2,0-0.3,0.3-0.3,0.8l-0.1,3c0,0.3-0.2,0.5-0.4,0.5C9.2,7.7,9,7.5,9,7.2l-0.2-3
			c0-0.4-0.2-0.8-0.4-0.8c-0.2,0-0.2,0.3-0.2,0.8c0,0.1,0,0.2,0,0.3v2.6c0,2.1,0.9,3.8,2,3.8h0c1.1,0,2-1.7,2-3.8V4.5
			C12.3,4.5,12.3,4.3,12.3,4.2z"/>
	</g>
</g>
<g class="st0">
	<path class="st23" d="M24.9,12.5c0,6.9-5.6,12.4-12.4,12.4c-6.9,0-12.4-5.6-12.4-12.4c0-6.9,5.6-12.4,12.4-12.4
		C19.4,0.1,24.9,5.6,24.9,12.5z"/>
	<path class="st24" d="M23.4,12.5c0,6-4.9,10.9-10.9,10.9c-6,0-10.9-4.9-10.9-10.9c0-6,4.9-10.9,10.9-10.9
		C18.5,1.6,23.4,6.5,23.4,12.5z"/>
	<path class="st25" d="M12.2,4.1v1.1V4.1z"/>
	<path class="st25" d="M15.3,4.6l-0.4,1L15.3,4.6z"/>
	<path class="st25" d="M18,6.1l-0.7,0.8L18,6.1z"/>
	<path class="st25" d="M19.9,8.5L19,9L19.9,8.5z"/>
	<path class="st25" d="M20.8,11.5l-1.1,0.1L20.8,11.5z"/>
	<path class="st25" d="M20.6,14.6l-1-0.3L20.6,14.6z"/>
	<path class="st25" d="M19.3,17.4l-0.9-0.7L19.3,17.4z"/>
	<path class="st25" d="M17.1,19.6l-0.6-0.9L17.1,19.6z"/>
	<path class="st25" d="M14.2,20.7L14,19.7L14.2,20.7z"/>
	<path class="st25" d="M11.1,20.8l0.2-1.1L11.1,20.8z"/>
	<path class="st25" d="M8.2,19.7l0.6-0.9L8.2,19.7z"/>
	<path class="st25" d="M5.9,17.7L6.7,17L5.9,17.7z"/>
	<path class="st25" d="M4.5,14.9l1-0.3L4.5,14.9z"/>
	<path class="st25" d="M4.1,11.8L5.2,12L4.1,11.8z"/>
	<path class="st25" d="M4.9,8.8l0.9,0.5L4.9,8.8z"/>
	<path class="st25" d="M6.8,6.4l0.7,0.8L6.8,6.4z"/>
	<path class="st25" d="M9.4,4.7l0.4,1L9.4,4.7z"/>
	<path class="st26" d="M11.7,13.4L8.5,9.5l4,3c0.4,0.3,0.5,0.7,0.2,1C12.5,13.8,12,13.7,11.7,13.4z"/>
	<path class="st26" d="M12.7,12.6l5.8-2.6L13,13.2c-0.5,0.3-1,0.4-1.1,0.2C11.8,13.2,12.2,12.9,12.7,12.6z"/>
	<path class="st27" d="M11.8,14.5L15,6.9l-2.9,7.7c-0.3,0.7-0.6,1.3-0.7,1.3C11.4,15.8,11.5,15.2,11.8,14.5z"/>
	<ellipse class="st28" cx="12.5" cy="13" rx="0.4" ry="0.4"/>
</g>
</svg>
