<?xml version="1.0" encoding="utf-8"?>
<!-- Generator: Adobe Illustrator 21.0.0, SVG Export Plug-In . SVG Version: 6.00 Build 0)  -->
<svg version="1.1" id="Layer_1" xmlns="http://www.w3.org/2000/svg" xmlns:xlink="http://www.w3.org/1999/xlink" x="0px" y="0px"
	 viewBox="0 0 24 24" style="enable-background:new 0 0 24 24;" xml:space="preserve">
<style type="text/css">
	.st0{fill:none;stroke:#127ABB;stroke-miterlimit:10;}
</style>
<g>
	<g>
		<g>
			<line class="st0" x1="22.8" y1="8" x2="1.2" y2="8"/>
		</g>
		<polyline class="st0" points="4.5,4.7 4.5,5.8 7.1,5.8 7.1,4.7 		"/>
		<polyline class="st0" points="16.9,4.7 16.9,5.8 19.5,5.8 19.5,4.7 		"/>
		<path class="st0" d="M4.5,3.6H2.3c-0.6,0-1.1,0.5-1.1,1.1v16.7c0,0.6,0.5,1.1,1.1,1.1h19.4c0.6,0,1.1-0.5,1.1-1.1V4.7
			c0-0.6-0.5-1.1-1.1-1.1h-2.2V2c0-0.3-0.2-0.5-0.5-0.5h-1.6c-0.3,0-0.5,0.2-0.5,0.5v1.6H7.1V2c0-0.3-0.2-0.5-0.5-0.5H5
			C4.7,1.5,4.5,1.7,4.5,2V3.6z"/>
		<line class="st0" x1="8.8" y1="12.3" x2="10.9" y2="12.3"/>
		<line class="st0" x1="13.1" y1="12.3" x2="15.2" y2="12.3"/>
		<line class="st0" x1="17.4" y1="12.3" x2="19.5" y2="12.3"/>
		<line class="st0" x1="4.5" y1="15" x2="6.6" y2="15"/>
		<line class="st0" x1="8.8" y1="15" x2="10.9" y2="15"/>
		<line class="st0" x1="13.1" y1="15" x2="15.2" y2="15"/>
		<line class="st0" x1="17.4" y1="15" x2="19.5" y2="15"/>
		<line class="st0" x1="4.5" y1="17.7" x2="6.6" y2="17.7"/>
		<line class="st0" x1="8.8" y1="17.7" x2="10.9" y2="17.7"/>
		<line class="st0" x1="13.1" y1="17.7" x2="15.2" y2="17.7"/>
	</g>
</g>
</svg>
