<?xml version="1.0" encoding="utf-8"?>
<!-- Generator: Adobe Illustrator 21.0.0, SVG Export Plug-In . SVG Version: 6.00 Build 0)  -->
<svg version="1.1" id="Layer_1" xmlns="http://www.w3.org/2000/svg" xmlns:xlink="http://www.w3.org/1999/xlink" x="0px" y="0px"
	 viewBox="0 0 38 38" style="enable-background:new 0 0 38 38;" xml:space="preserve">
<style type="text/css">
	.st0{fill:#F47536;}
</style>
<g>
	<path class="st0" d="M16.6,20.8h1.5V22h-1.5v2.4h-1.4V22h-4.7v-0.8l4.6-7.3h1.5V20.8z M12,20.8h3.2v-4.9l0,0L15,16.3L12,20.8z"/>
	<path class="st0" d="M20.3,19.6l0.6-5.8h5.3v1.3h-4.1l-0.3,3c0.2-0.2,0.5-0.3,0.7-0.4s0.6-0.2,0.9-0.2c1,0,1.7,0.3,2.3,0.9
		c0.6,0.6,0.8,1.5,0.8,2.6c0,1.1-0.3,1.9-0.8,2.5c-0.6,0.6-1.4,1-2.5,1c-0.9,0-1.6-0.2-2.2-0.7s-0.9-1.2-0.9-2.1l0,0h1.3
		c0,0.6,0.2,1,0.5,1.3s0.8,0.5,1.3,0.5c0.6,0,1.1-0.2,1.4-0.6c0.3-0.4,0.5-1,0.5-1.7c0-0.7-0.2-1.2-0.5-1.7
		c-0.3-0.4-0.8-0.6-1.4-0.6c-0.6,0-1,0.1-1.2,0.3c-0.3,0.2-0.4,0.4-0.5,0.8L20.3,19.6z"/>
</g>
<g>
	<g>
		<path class="st0" d="M19,30.8c-6.5,0-11.8-5.3-11.8-11.8S12.5,7.2,19,7.2V0.1C8.5,0.1,0.1,8.5,0.1,19S8.5,37.9,19,37.9
			S37.9,29.5,37.9,19h-7.1C30.8,25.5,25.5,30.8,19,30.8z"/>
	</g>
</g>
</svg>
